<svg id="svg" version="1.1" xmlns="http://www.w3.org/2000/svg" xmlns:xlink="http://www.w3.org/1999/xlink" width="400" height="400" viewBox="0, 0, 400,400"><g id="svgg"><path id="path0" d="M0.000 200.000 L 0.000 400.000 91.600 400.000 L 183.200 400.000 183.200 341.800 L 183.200 283.600 184.100 283.562 C 184.595 283.541,182.750 283.117,180.000 282.620 C 131.122 273.784,126.859 237.208,173.327 225.373 C 176.504 224.563,183.957 223.213,185.303 223.202 C 185.470 223.201,185.560 212.905,185.503 200.323 L 185.400 177.446 180.200 176.548 C 127.674 167.482,127.813 126.888,180.400 117.852 L 185.400 116.993 185.402 58.496 L 185.404 -0.000 185.301 58.400 L 185.197 116.800 184.199 116.800 L 183.200 116.800 183.200 58.400 L 183.200 0.000 91.600 0.000 L 0.000 0.000 0.000 200.000 M214.998 58.400 L 215.000 117.000 219.000 117.660 C 272.529 126.499,273.362 167.372,220.200 176.548 L 215.000 177.446 214.897 199.999 C 214.840 212.404,214.943 222.703,215.126 222.886 C 215.309 223.069,217.195 223.479,219.317 223.798 C 272.343 231.758,273.098 272.791,220.400 282.652 C 217.650 283.166,216.255 283.522,217.300 283.443 L 219.200 283.298 219.200 341.649 L 219.200 400.000 309.600 400.000 L 400.000 400.000 400.000 200.000 L 400.000 0.000 310.018 0.000 L 220.037 0.000 219.818 30.700 C 219.698 47.585,219.501 73.974,219.382 89.342 L 219.164 117.284 218.282 117.047 C 217.797 116.917,216.906 116.808,216.301 116.805 L 215.203 116.800 215.099 58.300 L 214.996 -0.200 214.998 58.400 M193.800 129.073 C 173.249 130.846,158.809 136.500,154.300 144.540 C 149.388 153.297,169.565 163.845,194.300 165.452 L 198.400 165.718 198.400 200.209 L 198.400 234.700 197.150 234.950 C 196.462 235.088,195.156 235.200,194.248 235.200 C 178.238 235.200,158.327 242.831,154.368 250.484 C 151.100 256.801,159.909 264.261,175.724 268.569 C 201.802 275.674,239.515 269.111,246.034 256.334 C 251.050 246.501,228.250 235.327,202.100 234.802 C 202.045 234.801,202.000 219.257,202.000 200.260 L 202.000 165.720 205.985 165.459 C 228.838 163.961,247.533 155.365,246.704 146.737 C 246.064 140.085,234.661 133.617,217.866 130.380 C 211.897 129.230,199.671 128.566,193.800 129.073 M219.200 184.973 L 219.200 192.747 218.100 192.873 L 217.000 193.000 216.891 199.866 L 216.781 206.732 217.991 206.998 L 219.200 207.264 219.200 215.282 L 219.200 223.300 217.950 223.050 C 217.262 222.913,216.362 222.800,215.950 222.800 C 215.226 222.800,215.200 222.032,215.200 200.224 L 215.200 177.648 216.700 177.491 C 217.525 177.405,218.425 177.304,218.700 177.267 C 219.085 177.215,219.200 178.985,219.200 184.973 M185.200 200.200 L 185.200 222.800 184.184 222.800 L 183.168 222.800 183.284 214.800 L 183.400 206.799 138.490 206.800 L 93.580 206.800 93.690 200.300 L 93.800 193.800 138.600 193.800 L 183.400 193.800 183.277 185.700 L 183.154 177.600 184.177 177.600 L 185.200 177.600 185.200 200.200 M306.800 200.000 L 306.800 206.400 262.000 206.400 L 217.200 206.400 217.200 200.000 L 217.200 193.600 262.000 193.600 L 306.800 193.600 306.800 200.000 M185.395 341.800 C 185.395 373.920,185.442 387.119,185.500 371.131 C 185.558 355.144,185.558 328.864,185.500 312.731 C 185.442 296.599,185.395 309.680,185.395 341.800 M214.995 341.800 C 214.995 373.920,215.042 387.119,215.100 371.131 C 215.158 355.144,215.158 328.864,215.100 312.731 C 215.042 296.599,214.995 309.680,214.995 341.800 " stroke="none" fill="#6b4b33" fill-rule="evenodd"></path><path id="path1" d="M185.501 58.496 L 185.400 116.993 180.400 117.852 C 127.813 126.888,127.674 167.482,180.200 176.548 L 185.400 177.446 185.503 200.323 C 185.560 212.905,185.470 223.201,185.303 223.202 C 183.957 223.213,176.504 224.563,173.327 225.373 C 127.347 237.084,131.151 274.033,179.200 282.418 C 181.730 282.859,184.205 283.309,184.700 283.418 L 185.600 283.615 185.600 341.808 L 185.600 400.000 200.200 400.000 L 214.800 400.000 214.800 341.808 L 214.800 283.615 215.700 283.418 C 216.195 283.309,218.670 282.859,221.200 282.418 C 273.064 273.367,271.724 231.665,219.317 223.798 C 217.195 223.479,215.309 223.069,215.126 222.886 C 214.943 222.703,214.840 212.404,214.897 199.999 L 215.000 177.446 220.200 176.548 C 273.362 167.372,272.529 126.499,219.000 117.660 L 215.000 117.000 214.899 58.500 L 214.797 -0.000 200.200 -0.000 L 185.603 0.000 185.501 58.496 M209.910 129.404 C 230.428 131.462,245.938 138.768,246.704 146.737 C 247.533 155.365,228.838 163.961,205.985 165.459 L 202.000 165.720 202.000 200.260 C 202.000 219.257,202.045 234.801,202.100 234.802 C 228.250 235.327,251.050 246.501,246.034 256.334 C 239.515 269.111,201.802 275.674,175.724 268.569 C 159.909 264.261,151.100 256.801,154.368 250.484 C 158.327 242.831,178.238 235.200,194.248 235.200 C 195.156 235.200,196.462 235.088,197.150 234.950 L 198.400 234.700 198.400 200.209 L 198.400 165.718 194.300 165.452 C 175.049 164.201,157.900 157.541,154.278 149.908 C 150.461 141.865,166.111 132.265,187.032 129.816 C 196.926 128.657,201.622 128.573,209.910 129.404 M93.868 193.865 C 93.721 194.013,93.600 196.983,93.600 200.467 L 93.600 206.800 138.610 206.800 L 183.620 206.800 183.510 200.300 L 183.400 193.800 138.768 193.698 C 114.221 193.642,94.016 193.717,93.868 193.865 M217.200 200.000 L 217.200 206.400 262.000 206.400 L 306.800 206.400 306.800 200.000 L 306.800 193.600 262.000 193.600 L 217.200 193.600 217.200 200.000 " stroke="none" fill="#fbfbfb" fill-rule="evenodd"></path><path id="path2" d="M183.200 58.400 L 183.200 116.800 184.200 116.800 L 185.200 116.800 185.200 58.400 L 185.200 0.000 184.200 0.000 L 183.200 0.000 183.200 58.400 M215.200 58.400 L 215.200 116.800 216.300 116.805 C 216.905 116.808,217.797 116.917,218.282 117.047 L 219.164 117.284 219.382 89.342 C 219.501 73.974,219.698 47.585,219.818 30.700 L 220.037 -0.000 217.618 -0.000 L 215.200 0.000 215.200 58.400 M216.700 177.491 L 215.200 177.648 215.200 200.224 C 215.200 222.032,215.226 222.800,215.950 222.800 C 216.362 222.800,217.262 222.913,217.950 223.050 L 219.200 223.300 219.200 215.282 L 219.200 207.264 217.991 206.998 L 216.781 206.732 216.891 199.866 L 217.000 193.000 218.100 192.873 L 219.200 192.747 219.200 184.973 C 219.200 178.985,219.085 177.215,218.700 177.267 C 218.425 177.304,217.525 177.405,216.700 177.491 M183.324 200.200 L 183.324 222.800 184.262 222.800 L 185.200 222.800 185.200 200.200 L 185.200 177.600 184.262 177.600 L 183.324 177.600 183.324 200.200 M216.900 283.493 L 215.200 283.646 215.200 341.823 L 215.200 400.000 217.200 400.000 L 219.200 400.000 219.200 341.600 C 219.200 309.480,219.065 283.231,218.900 283.270 C 218.735 283.308,217.835 283.409,216.900 283.493 M183.200 341.800 L 183.200 400.000 184.200 400.000 L 185.200 400.000 185.200 341.800 L 185.200 283.600 184.200 283.600 L 183.200 283.600 183.200 341.800 " stroke="none" fill="#402e20" fill-rule="evenodd"></path></g></svg>